<svg xmlns="http://www.w3.org/2000/svg" version="1.1" xmlns:xlink="http://www.w3.org/1999/xlink" xmlns:svgjs="http://svgjs.dev/svgjs" width="1000" height="623" viewBox="0 0 1000 623"><g transform="matrix(1,0,0,1,-0.6060606060606233,0.2522267206477409)"><svg viewBox="0 0 396 247" data-background-color="#333366" preserveAspectRatio="xMidYMid meet" height="623" width="1000" xmlns="http://www.w3.org/2000/svg" xmlns:xlink="http://www.w3.org/1999/xlink"><g id="tight-bounds" transform="matrix(1,0,0,1,0.2400000000000091,-0.09999999999999432)"><svg viewBox="0 0 395.52 247.2" height="247.2" width="395.52"><g><svg></svg></g><g><svg viewBox="0 0 395.52 247.2" height="247.2" width="395.52"><g transform="matrix(1,0,0,1,39.55199999999999,97.41384827586207)"><svg viewBox="0 0 316.416 52.372303448275865" height="52.372303448275865" width="316.416"><g><svg viewBox="0 0 316.416 52.372303448275865" height="52.372303448275865" width="316.416"><g><svg viewBox="0 0 316.416 52.372303448275865" height="52.372303448275865" width="316.416"><g><svg viewBox="0 0 316.416 52.372303448275865" height="52.372303448275865" width="316.416"><g><svg viewBox="0 0 316.416 52.372303448275865" height="52.372303448275865" width="316.416"><g><svg viewBox="0 0 316.416 52.372303448275865" height="52.372303448275865" width="316.416"><g transform="matrix(1,0,0,1,0,0)"><svg width="316.416" viewBox="4.05 -35.5 217.48 36" height="52.372303448275865" data-palette-color="#ffffff"><path d="M6.65-35.05L6.65-35.05Q7.25-35.05 7.9-34.75 8.55-34.45 8.9-33.9L8.9-33.9 21.6-14.55 19.45-14.65 32.4-33.9Q33.2-35.05 34.45-35.05L34.45-35.05Q35.45-35.05 36.23-34.33 37-33.6 37-32.5L37-32.5 37-2.55Q37-1.45 36.3-0.73 35.6 0 34.45 0L34.45 0Q33.25 0 32.52-0.73 31.8-1.45 31.8-2.55L31.8-2.55 31.8-27.9 33.4-27.55 22.4-10.8Q22.05-10.35 21.5-10.03 20.95-9.7 20.35-9.75L20.35-9.75Q19.8-9.7 19.23-10.03 18.65-10.35 18.3-10.8L18.3-10.8 7.7-27.3 8.9-29.3 8.9-2.55Q8.9-1.45 8.22-0.73 7.55 0 6.45 0L6.45 0Q5.4 0 4.73-0.73 4.05-1.45 4.05-2.55L4.05-2.55 4.05-32.5Q4.05-33.55 4.83-34.3 5.6-35.05 6.65-35.05ZM67-35.15L67-35.15Q67.95-35.15 68.72-34.43 69.5-33.7 69.5-32.6L69.5-32.6Q69.5-32.2 69.37-31.83 69.25-31.45 69-31.05L69-31.05 57.55-14.85 58.35-17.8 58.35-2.55Q58.35-1.45 57.6-0.73 56.85 0 55.9 0L55.9 0Q54.85 0 54.12-0.73 53.4-1.45 53.4-2.55L53.4-2.55 53.4-17.4 53.75-15.95 42.7-30.7Q42.3-31.25 42.15-31.73 42-32.2 42-32.65L42-32.65Q42-33.75 42.87-34.45 43.75-35.15 44.65-35.15L44.65-35.15Q45.85-35.15 46.7-34L46.7-34 56.7-20.3 55.5-20.45 64.9-33.95Q65.75-35.15 67-35.15ZM92.44-4.9L107.59-4.9Q108.64-4.9 109.37-4.2 110.09-3.5 110.09-2.45L110.09-2.45Q110.09-1.4 109.37-0.7 108.64 0 107.59 0L107.59 0 90.79 0Q89.69 0 88.97-0.73 88.24-1.45 88.24-2.55L88.24-2.55 88.24-32.45Q88.24-33.55 88.99-34.27 89.74-35 90.94-35L90.94-35Q91.94-35 92.72-34.27 93.49-33.55 93.49-32.45L93.49-32.45 93.49-4.05 92.44-4.9ZM121.09-32.45L121.09-2.55Q121.04-1.45 120.27-0.73 119.49 0 118.44 0L118.44 0Q117.29 0 116.57-0.73 115.84-1.45 115.84-2.55L115.84-2.55 115.84-32.45Q115.84-33.55 116.59-34.27 117.34-35 118.54-35L118.54-35Q119.54-35 120.32-34.27 121.09-33.55 121.09-32.45L121.09-32.45ZM155.44-35L155.44-35Q156.44-35 157.06-34.33 157.69-33.65 157.69-32.65L157.69-32.65 157.69-2.55Q157.69-1.45 156.96-0.73 156.24 0 155.14 0L155.14 0Q154.64 0 154.06-0.2 153.49-0.4 153.19-0.75L153.19-0.75 132.64-27.4 133.79-28.05 133.79-2.3Q133.79-1.35 133.14-0.68 132.49 0 131.49 0L131.49 0Q130.44 0 129.81-0.68 129.19-1.35 129.19-2.3L129.19-2.3 129.19-32.45Q129.19-33.6 129.94-34.3 130.69-35 131.74-35L131.74-35Q132.29-35 132.91-34.77 133.54-34.55 133.84-34.1L133.84-34.1 153.89-8 153.14-7.3 153.14-32.65Q153.14-33.65 153.79-34.33 154.44-35 155.44-35ZM190.24 0.05L190.24 0.05Q189.09 0.05 188.39-0.9L188.39-0.9 175.94-16.95 179.79-20.85 192.49-4.3Q193.09-3.5 193.09-2.55L193.09-2.55Q193.09-1.35 192.19-0.65 191.29 0.05 190.24 0.05ZM190.49-35.15L190.49-35.15Q191.49-35.15 192.14-34.35 192.79-33.55 192.79-32.7L192.79-32.7Q192.79-31.8 192.04-31.05L192.04-31.05 170.49-10.6 170.19-16.5 188.49-34.2Q189.39-35.15 190.49-35.15ZM168.44 0L168.44 0Q167.29 0 166.56-0.73 165.84-1.45 165.84-2.55L165.84-2.55 165.84-32.45Q165.84-33.55 166.59-34.27 167.34-35 168.54-35L168.54-35Q169.69-35 170.39-34.27 171.09-33.55 171.09-32.45L171.09-32.45 171.09-2.55Q171.04-1.45 170.34-0.73 169.64 0 168.44 0ZM209.18 0.5L209.18 0.5Q205.58 0.5 202.78-0.5 199.98-1.5 197.43-3.8L197.43-3.8Q196.88-4.2 196.61-4.78 196.33-5.35 196.33-5.95L196.33-5.95Q196.33-6.9 197.03-7.65 197.73-8.4 198.78-8.4L198.78-8.4Q199.58-8.4 200.28-7.85L200.28-7.85Q202.18-6.1 204.26-5.2 206.33-4.3 209.13-4.3L209.13-4.3Q211.13-4.3 212.81-4.95 214.48-5.6 215.48-6.7 216.48-7.8 216.48-9.25L216.48-9.25Q216.48-11.05 215.46-12.23 214.43-13.4 212.51-14.18 210.58-14.95 207.88-15.5L207.88-15.5Q205.38-15.95 203.41-16.75 201.43-17.55 200.03-18.78 198.63-20 197.88-21.7 197.13-23.4 197.13-25.65L197.13-25.65Q197.13-28.7 198.73-30.9 200.33-33.1 203.08-34.3 205.83-35.5 209.28-35.5L209.28-35.5Q212.43-35.5 215.18-34.52 217.93-33.55 219.63-31.9L219.63-31.9Q220.83-30.85 220.83-29.65L220.83-29.65Q220.83-28.75 220.11-27.98 219.38-27.2 218.43-27.2L218.43-27.2Q217.73-27.2 217.23-27.6L217.23-27.6Q216.43-28.45 215.08-29.13 213.73-29.8 212.21-30.25 210.68-30.7 209.28-30.7L209.28-30.7Q207.03-30.7 205.43-30.08 203.83-29.45 202.98-28.38 202.13-27.3 202.13-25.85L202.13-25.85Q202.13-24.15 203.11-23.05 204.08-21.95 205.83-21.28 207.58-20.6 209.83-20.05L209.83-20.05Q212.58-19.45 214.76-18.7 216.93-17.95 218.43-16.78 219.93-15.6 220.73-13.85 221.53-12.1 221.53-9.5L221.53-9.5Q221.53-6.5 219.83-4.25 218.13-2 215.36-0.75 212.58 0.5 209.18 0.5Z" opacity="1" transform="matrix(1,0,0,1,0,0)" fill="#ffffff" class="undefined-text-0" data-fill-palette-color="primary" id="text-0"></path></svg></g></svg></g></svg></g></svg></g></svg></g></svg></g></svg></g><g mask="url(#c4204c37-b393-45cd-a24f-28bb42182df6)"><g transform="matrix(3.35045911674683, 0, 0, 3.35045911674683, 30.237044162658492, 1)"><svg xmlns="http://www.w3.org/2000/svg" xmlns:xlink="http://www.w3.org/1999/xlink" version="1.1" x="0" y="0" viewBox="0 13.408000000000001 100 73.184" enable-background="new 0 0 100 100" xml:space="preserve" height="73.184" width="100" class="icon-none" data-fill-palette-color="accent" id="none"><path d="M47.827 28.983c-0.006 0.004-0.011 0.009-0.017 0.014-0.693 0.538-1.357 1.109-1.994 1.712-0.007 0.007-0.014 0.014-0.021 0.021-0.636 0.604-1.243 1.24-1.817 1.904-0.002 0.003-0.005 0.006-0.007 0.009C39.944 37.305 37.5 43.37 37.5 50c0 4.225 0.995 8.22 2.755 11.771 3.619-1.382 6.505-4.399 7.676-8.106C47.658 52.481 47.5 51.258 47.5 50c0-3.161 0.93-6.124 2.504-8.656 0.225-0.362 0.463-0.715 0.714-1.059l0 0c0.709-0.97 1.523-1.856 2.417-2.655 0.076-0.068 0.148-0.14 0.227-0.206 0.213-0.184 0.438-0.356 0.66-0.529 0.174-0.135 0.35-0.27 0.529-0.397 0.191-0.138 0.387-0.271 0.586-0.401 0.241-0.157 0.488-0.306 0.736-0.451 0.163-0.094 0.324-0.192 0.49-0.281 0.419-0.225 0.846-0.437 1.285-0.625 0.004-0.002 0.008-0.004 0.012-0.006l0 0c1.984-0.851 4.159-1.323 6.432-1.323h25.75c5.609 0 10.156-4.478 10.156-10H64.092v-0.003C57.969 23.406 52.327 25.492 47.827 28.983z" fill="#ffffff" data-fill-palette-color="accent"></path><path d="M100 66.591H64.092c-0.808 0-1.597-0.08-2.375-0.194-2.033 3.188-4.635 5.979-7.668 8.221 3.078 1.26 6.44 1.963 9.965 1.974H64c2.762 0 5 2.238 5 5v5L100 66.591z" fill="#ffffff" data-fill-palette-color="accent"></path><path d="M35.908 33.409c0.808 0 1.597 0.08 2.376 0.194 2.033-3.188 4.634-5.979 7.668-8.22-3.079-1.261-6.441-1.964-9.966-1.975H36c-2.762 0-5-2.238-5-5v-5l-31 20H35.908z" fill="#ffffff" data-fill-palette-color="accent"></path><path d="M50.003 72.536c0.749-0.471 1.471-0.978 2.168-1.518 0.008-0.006 0.014-0.012 0.021-0.017 0.691-0.538 1.355-1.108 1.99-1.711 0.008-0.007 0.015-0.014 0.021-0.021 0.636-0.604 1.24-1.237 1.814-1.9 0.004-0.005 0.008-0.011 0.014-0.016 0.574-0.665 1.115-1.358 1.623-2.079 0.002-0.002 0.004-0.005 0.006-0.007 0 0 0 0-0.001 0 3.044-4.324 4.839-9.589 4.839-15.268 0-4.225-0.994-8.22-2.756-11.771-3.619 1.382-6.505 4.399-7.676 8.107 0.273 1.183 0.432 2.406 0.432 3.664 0 3.158-0.928 6.118-2.5 8.648-0.862 1.388-1.924 2.639-3.137 3.723-0.076 0.067-0.148 0.139-0.225 0.204-0.214 0.185-0.438 0.357-0.661 0.53-0.174 0.135-0.348 0.269-0.527 0.396-0.193 0.139-0.39 0.273-0.59 0.403-0.239 0.156-0.483 0.304-0.73 0.447-0.165 0.096-0.327 0.195-0.495 0.285-0.415 0.223-0.838 0.432-1.272 0.618-0.008 0.004-0.016 0.008-0.024 0.012l0 0c-1.984 0.851-4.159 1.323-6.432 1.323H10.157c-5.61 0-10.157 4.478-10.157 10h35.908v0.004c5.174 0 10.004-1.49 14.093-4.058l0 0C50.002 72.537 50.003 72.536 50.003 72.536z" fill="#ffffff" data-fill-palette-color="accent"></path></svg><g></g></g></g></svg></g><defs><mask id="c4204c37-b393-45cd-a24f-28bb42182df6"><rect width="640" height="400" fill="white"></rect><rect width="348.05760000000004" height="77.0999912659862" fill="black" x="145.97119999999998" y="161.4500043670069" id="transform-me" transform="matrix(1,0,0,1,-122.24000000000001,-76.4)"></rect></mask></defs></svg><rect width="395.52" height="247.2" fill="none" stroke="none" visibility="hidden"></rect></g></svg></g></svg>