<svg xmlns="http://www.w3.org/2000/svg" version="1.1" xmlns:xlink="http://www.w3.org/1999/xlink" xmlns:svgjs="http://svgjs.dev/svgjs" width="2000" height="1247" viewBox="0 0 2000 1247"><g transform="matrix(1,0,0,1,-1.2121212121212466,0.504858299595071)"><svg viewBox="0 0 396 247" data-background-color="#ffffff" preserveAspectRatio="xMidYMid meet" height="1247" width="2000" xmlns="http://www.w3.org/2000/svg" xmlns:xlink="http://www.w3.org/1999/xlink"><g id="tight-bounds" transform="matrix(1,0,0,1,0.2400000000000091,-0.09999999999999432)"><svg viewBox="0 0 395.52 247.2" height="247.2" width="395.52"><g><svg></svg></g><g><svg viewBox="0 0 395.52 247.2" height="247.2" width="395.52"><g transform="matrix(1,0,0,1,112.87497902894677,37.08)"><svg viewBox="0 0 169.77004194210645 173.04" height="173.04" width="169.77004194210645"><g><svg viewBox="0 0 169.77004194210645 173.04" height="173.04" width="169.77004194210645"><g><svg viewBox="0 0 301.8591219523559 307.6732612250162" height="173.04" width="169.77004194210645"><g><svg viewBox="0 0 301.8591219523559 307.6732612250162" height="307.6732612250162" width="301.8591219523559"><g><svg viewBox="0 0 301.8591219523559 307.6732612250162" height="307.6732612250162" width="301.8591219523559"><g><svg viewBox="0 0 301.8591219523559 171.9706128" height="171.9706128" width="301.8591219523559"><g transform="matrix(1,0,0,1,0,0)"><svg width="301.8591219523559" viewBox="1.55 -35 61.480111222047995 35.02451612903226" height="171.9706128" data-palette-color="#61777f"><path d="M15.45 0L15.45 0Q14.25 0 13.53-0.73 12.8-1.45 12.8-2.55L12.8-2.55 12.8-32.5 18.15-32.5 18.15-2.55Q18.15-1.45 17.38-0.73 16.6 0 15.45 0ZM26.85-30.2L4.1-30.2Q3.05-30.2 2.3-30.88 1.55-31.55 1.55-32.65L1.55-32.65Q1.55-33.7 2.3-34.35 3.05-35 4.1-35L4.1-35 26.85-35Q27.9-35 28.63-34.33 29.35-33.65 29.35-32.6L29.35-32.6Q29.35-31.5 28.63-30.85 27.9-30.2 26.85-30.2L26.85-30.2ZM38 0L38 0Q36.8 0 35.9-0.73 35-1.45 35-2.55L35-2.55 35-32.45Q35-33.55 35.75-34.27 36.5-35 37.55-35L37.55-35 51.65-35Q54.35-35 56.6-33.68 58.85-32.35 60.22-30.03 61.6-27.7 61.6-24.7L61.6-24.7Q61.6-22.7 60.8-20.88 60-19.05 58.65-17.65 57.3-16.25 55.6-15.55L55.6-15.55 55.05-16.5Q56.6-15.95 57.75-14.93 58.9-13.9 59.57-12.53 60.25-11.15 60.3-9.4L60.3-9.4Q60.45-7.85 60.57-6.83 60.7-5.8 60.95-5.15 61.2-4.5 61.85-4.15L61.85-4.15Q62.75-3.65 62.97-2.65 63.2-1.65 62.55-0.85L62.55-0.85Q62.1-0.25 61.42-0.08 60.75 0.1 60.05-0.03 59.35-0.15 58.85-0.4L58.85-0.4Q58.05-0.9 57.22-1.83 56.4-2.75 55.9-4.4 55.4-6.05 55.4-8.75L55.4-8.75Q55.4-10 55-10.9 54.6-11.8 53.9-12.38 53.2-12.95 52.25-13.23 51.3-13.5 50.15-13.5L50.15-13.5 39.55-13.5 40.25-14.5 40.25-2.55Q40.25-1.45 39.65-0.73 39.05 0 38 0ZM40.25-16.8L39.6-17.85 51.55-17.85Q52.7-17.9 53.77-18.78 54.85-19.65 55.52-21.15 56.2-22.65 56.2-24.55L56.2-24.55Q56.2-26.95 54.77-28.58 53.35-30.2 51.4-30.2L51.4-30.2 39.7-30.2 40.25-31.5 40.25-16.8Z" opacity="1" transform="matrix(1,0,0,1,0,0)" fill="#000000" class="undefined-text-0" data-fill-palette-color="primary" id="text-0"></path></svg></g></svg></g><g transform="matrix(1,0,0,1,0,212.5687471873728)"><svg viewBox="0 0 301.8591219523559 95.10451403764341" height="95.10451403764341" width="301.8591219523559"><g transform="matrix(1,0,0,1,0,0)"><svg width="301.8591219523559" viewBox="4.6 -36 115.84 36.5" height="95.10451403764341" data-palette-color="#c8c8c8"><path d="M4.6-34.3L9.5-34.3 9.5-4.45 25.25-4.45 25.95 0 4.6 0 4.6-34.3ZM30.85-36L35.75-36 35.75-31.65 30.85-31.65 30.85-36ZM30.95-25.55L35.65-25.55 35.65 0 30.95 0 30.95-25.55ZM56.55-26.05Q60.75-26.05 63.15-23.8 65.55-21.55 65.55-17.2L65.55-17.2 65.55 0 60.84 0 60.84-16.35Q60.84-22.3 55.45-22.3L55.45-22.3Q53.65-22.3 52.09-21.35 50.55-20.4 49.59-18.78 48.65-17.15 48.65-15.2L48.65-15.2 48.65 0 43.95 0 43.95-25.55 47.34-25.55 48-21.8Q51.2-26.05 56.55-26.05L56.55-26.05ZM73.59-36L78.29-36 78.29-11.3 89.69-25.55 94.84-25.55 84.99-13.15 95.49 0 89.79 0 82.14-9.5 78.29-5.5 78.29 0 73.59 0 73.59-36ZM110.09-26.05Q112.94-26.05 115.17-25.15 117.39-24.25 118.62-22.65 119.84-21.05 119.84-19.1L119.84-19.1 119.79-18.2 115.14-18.2 115.14-18.65Q115.14-22.3 109.49-22.3L109.49-22.3Q103.89-22.3 103.89-18.95L103.89-18.95Q103.89-17.4 105.49-16.68 107.09-15.95 110.39-15.3L110.39-15.3Q113.54-14.65 115.57-13.95 117.59-13.25 119.02-11.75 120.44-10.25 120.44-7.7L120.44-7.7Q120.44-3.6 117.64-1.55 114.84 0.5 109.59 0.5L109.59 0.5 108.84 0.5Q105.69 0.5 103.34-0.48 100.99-1.45 99.72-3.13 98.44-4.8 98.49-6.9L98.49-6.9 98.49-8 103.14-8 103.14-7.5Q103.14-3.25 110.29-3.25L110.29-3.25Q112.39-3.25 114.07-4.2 115.74-5.15 115.74-6.8L115.74-6.8Q115.74-8.2 114.82-9 113.89-9.8 112.54-10.2 111.19-10.6 108.79-11L108.79-11Q105.69-11.6 103.79-12.23 101.89-12.85 100.54-14.35 99.19-15.85 99.19-18.45L99.19-18.45Q99.19-22 101.99-24.03 104.79-26.05 109.64-26.05L109.64-26.05 110.09-26.05Z" opacity="1" transform="matrix(1,0,0,1,0,0)" fill="#000000" class="undefined-text-1" data-fill-palette-color="secondary" id="text-1"></path></svg></g></svg></g></svg></g></svg></g></svg></g></svg></g></svg></g><g></g></svg></g><defs></defs></svg><rect width="395.52" height="247.2" fill="none" stroke="none" visibility="hidden"></rect></g></svg></g></svg>